<svg xmlns="http://www.w3.org/2000/svg" viewBox="0 0 64 64" fill="none">
  <rect width="64" height="64" rx="14" fill="#0B1F44"/>
  <g transform="translate(4 14) scale(0.4667)">
    <defs>
      <linearGradient id="loop" x1="6" y1="36" x2="114" y2="36" gradientUnits="userSpaceOnUse">
        <stop offset="0%" stop-color="#2563EB"/>
        <stop offset="48%" stop-color="#14B8A6"/>
        <stop offset="100%" stop-color="#8B5CF6"/>
      </linearGradient>
      <linearGradient id="bars" x1="72" y1="52" x2="100" y2="20" gradientUnits="userSpaceOnUse">
        <stop offset="0%" stop-color="#14B8A6"/>
        <stop offset="100%" stop-color="#8B5CF6"/>
      </linearGradient>
      <linearGradient id="shine" x1="20" y1="16" x2="102" y2="56" gradientUnits="userSpaceOnUse">
        <stop offset="0%" stop-color="#ffffff" stop-opacity="0.55"/>
        <stop offset="40%" stop-color="#ffffff" stop-opacity="0.14"/>
        <stop offset="100%" stop-color="#ffffff" stop-opacity="0"/>
      </linearGradient>
    </defs>
    <path
      d="M34 16C18 16 8 24.5 8 36C8 47.5 18 56 34 56C44.5 56 51.5 51.5 58.5 44.5C61.5 41.5 64.5 39.5 67.5 39.5C70.5 39.5 73.5 41.5 76.5 44.5C83.5 51.5 90.5 56 101 56C117 56 127 47.5 127 36C127 24.5 117 16 101 16C90.5 16 83.5 20.5 76.5 27.5C73.5 30.5 70.5 32.5 67.5 32.5C64.5 32.5 61.5 30.5 58.5 27.5C51.5 20.5 44.5 16 34 16Z"
      transform="translate(-7.5 0)"
      fill="none"
      stroke="url(#loop)"
      stroke-width="11.5"
      stroke-linecap="round"
      stroke-linejoin="round"
    />
    <path
      d="M34 16C18 16 8 24.5 8 36C8 47.5 18 56 34 56C44.5 56 51.5 51.5 58.5 44.5C61.5 41.5 64.5 39.5 67.5 39.5C70.5 39.5 73.5 41.5 76.5 44.5C83.5 51.5 90.5 56 101 56C117 56 127 47.5 127 36C127 24.5 117 16 101 16C90.5 16 83.5 20.5 76.5 27.5C73.5 30.5 70.5 32.5 67.5 32.5C64.5 32.5 61.5 30.5 58.5 27.5C51.5 20.5 44.5 16 34 16Z"
      transform="translate(-7.5 0)"
      fill="none"
      stroke="url(#shine)"
      stroke-width="4.2"
      stroke-linecap="round"
      stroke-linejoin="round"
      opacity="0.9"
    />
    <path d="M18 28c1.8-5.2 5.4-8.2 10.2-8.6" stroke="url(#loop)" stroke-width="3.2" stroke-linecap="round"/>
    <path d="M18 44c1.8 5.2 5.4 8.2 10.2 8.6" stroke="url(#loop)" stroke-width="3.2" stroke-linecap="round"/>
    <g fill="url(#bars)">
      <rect x="74.5" y="31" width="3.4" height="12" rx="1.7"/>
      <rect x="80" y="26" width="3.4" height="17" rx="1.7"/>
      <rect x="85.5" y="28.5" width="3.4" height="14.5" rx="1.7"/>
      <rect x="91" y="23.5" width="3.4" height="19.5" rx="1.7"/>
      <rect x="96.5" y="29.5" width="3.4" height="13.5" rx="1.7"/>
    </g>
  </g>
</svg>
